<svg id="Ebene_1" data-name="Ebene 1" xmlns="http://www.w3.org/2000/svg" viewBox="0 0 475.14 113.36"><defs><style>.cls-1{fill:#f18e04;}.cls-2{fill:#12a6d7;}.cls-3{fill:#4d4948;}.cls-4{fill:none;stroke:#878787;stroke-width:4.68px;}</style></defs><title>5minds_logo</title><path class="cls-1" d="M259.21,240.81v8.88H199.83V269.4h29.93a122.81,122.81,0,0,1,16.22.79,27.81,27.81,0,0,1,9.37,2.94q9.93,5.56,9.93,16.39,0,12-12.17,17.61a34.2,34.2,0,0,1-9.79,2.66,139.34,139.34,0,0,1-16.43.71H184.59v-8.88h43q10.49,0,15-2a10.24,10.24,0,0,0,6.5-10.1,9.55,9.55,0,0,0-5.6-9.19,18.12,18.12,0,0,0-5.62-1.61,77.72,77.72,0,0,0-9.48-.44H184.59V240.81Z" transform="translate(-183.86 -240.81)"/><rect class="cls-2" x="222.41" y="0.23" width="13.85" height="10.57"/><rect class="cls-2" x="222.41" y="19.01" width="13.85" height="50.89"/><path class="cls-2" d="M440,259.82h32.24a59.3,59.3,0,0,1,14.65,1.45,19,19,0,0,1,8.84,4.83q4.55,4.29,4.68,14.3v30.32H486.56V281.46q0-7.66-3.6-10.64t-12.91-3H453.83v42.88H440Z" transform="translate(-183.86 -240.81)"/><path class="cls-2" d="M565.44,259.82V241h13.84v69.68h-31a82.58,82.58,0,0,1-14.58-1,26,26,0,0,1-9.26-3.48,20.42,20.42,0,0,1-7.38-8.29,25.49,25.49,0,0,1-2.69-11.66,27.45,27.45,0,0,1,4.05-14.6,21.53,21.53,0,0,1,11.16-9q7.37-2.8,19.83-2.8Zm0,42.88V267.83h-14.9A41.47,41.47,0,0,0,539.49,269a14.63,14.63,0,0,0-6.71,4q-4.06,4.29-4.06,12.15,0,9.65,4.41,13.61t15.1,4Z" transform="translate(-183.86 -240.81)"/><path class="cls-2" d="M655.94,259.82v8h-31.4q-7.21,0-9.33.23a6.67,6.67,0,0,0-3.39,1.2q-2.46,1.79-2.45,5.77t2.62,5q2.62,1.17,11.23,1.17h9.44q11.54.1,14.19.3a15,15,0,0,1,5,1.28q7,3.17,7,12.71,0,10.47-8.95,13.73a21.44,21.44,0,0,1-5.74,1.2q-3.29.28-11.54.28H595.79v-8h33.5q9.65,0,11.82-.66,3.43-1.07,3.43-5.72,0-4.89-4.27-5.66a76.68,76.68,0,0,0-10.07-.36h-5.66a151.16,151.16,0,0,1-15.18-.48,17,17,0,0,1-6.92-2.27Q595,283.2,595,274.88a13.41,13.41,0,0,1,2.45-7.91,14.18,14.18,0,0,1,6.72-5.11q5.31-2,16.71-2Z" transform="translate(-183.86 -240.81)"/><path class="cls-2" d="M303.34,241l31.33,56.82,29-56.82h22.52v69.68H371.31V251.5l-29.72,59.22H326.41L295.64,251.5v59.22H280.81V241Z" transform="translate(-183.86 -240.81)"/><path class="cls-3" d="M188.07,330.73v23.06h-4.21V330.73Z" transform="translate(-183.86 -240.81)"/><path class="cls-3" d="M221.91,334.25h-6.57v-3.52h17.42v3.52h-6.64v19.54h-4.21Z" transform="translate(-183.86 -240.81)"/><path class="cls-3" d="M265.46,343.21v2.91h-8.73v-2.91Z" transform="translate(-183.86 -240.81)"/><path class="cls-3" d="M293.41,349.2a11.62,11.62,0,0,0,5.58,1.47c2.7,0,4.21-1.27,4.21-3.15s-1.16-2.77-4.11-3.84c-3.8-1.37-6.23-3.39-6.23-6.7,0-3.76,3.15-6.64,8.15-6.64a12.19,12.19,0,0,1,5.54,1.16l-1,3.39a9.73,9.73,0,0,0-4.58-1.1c-2.67,0-3.83,1.44-3.83,2.77,0,1.78,1.33,2.6,4.41,3.8,4,1.51,6,3.52,6,6.84,0,3.7-2.81,6.95-8.76,6.95a13.69,13.69,0,0,1-6.23-1.47Z" transform="translate(-183.86 -240.81)"/><path class="cls-3" d="M356.33,342c0,7.74-4.69,12.15-11.05,12.15s-10.61-5-10.61-11.74c0-7.08,4.45-12.08,10.95-12.08C352.36,330.35,356.33,335.45,356.33,342Zm-17.21.34c0,4.69,2.36,8.45,6.4,8.45s6.36-3.8,6.36-8.63c0-4.34-2.15-8.48-6.36-8.48S339.12,337.6,339.12,342.36Z" transform="translate(-183.86 -240.81)"/><path class="cls-3" d="M384.55,330.73h4.21v19.54h9.48v3.53H384.55Z" transform="translate(-183.86 -240.81)"/><path class="cls-3" d="M429.06,330.73v13.45c0,4.52,1.88,6.6,4.72,6.6,3,0,4.86-2.09,4.86-6.6V330.73h4.21V343.9c0,7.12-3.66,10.27-9.21,10.27-5.34,0-8.79-3-8.79-10.23V330.73Z" transform="translate(-183.86 -240.81)"/><path class="cls-3" d="M476.68,334.25h-6.57v-3.52h17.42v3.52h-6.64v19.54h-4.21Z" transform="translate(-183.86 -240.81)"/><path class="cls-3" d="M519,330.73v23.06h-4.21V330.73Z" transform="translate(-183.86 -240.81)"/><path class="cls-3" d="M568.92,342c0,7.74-4.69,12.15-11.05,12.15s-10.61-5-10.61-11.74c0-7.08,4.45-12.08,11-12.08C565,330.35,568.92,335.45,568.92,342Zm-17.21.34c0,4.69,2.36,8.45,6.4,8.45s6.36-3.8,6.36-8.63c0-4.34-2.15-8.48-6.36-8.48S551.71,337.6,551.71,342.36Z" transform="translate(-183.86 -240.81)"/><path class="cls-3" d="M597.14,353.79V330.73h4.79l6,9.89a63,63,0,0,1,3.93,7.73h.07c-.28-3.08-.38-6.05-.38-9.58v-8h3.9v23.06h-4.35l-6-10.16a76.21,76.21,0,0,1-4.14-7.94l-.1,0c.17,3,.21,6,.21,9.82v8.25Z" transform="translate(-183.86 -240.81)"/><path class="cls-3" d="M644.77,349.2a11.63,11.63,0,0,0,5.58,1.47c2.71,0,4.21-1.27,4.21-3.15s-1.17-2.77-4.11-3.84c-3.8-1.37-6.23-3.39-6.23-6.7,0-3.76,3.15-6.64,8.15-6.64a12.18,12.18,0,0,1,5.55,1.16l-1,3.39a9.73,9.73,0,0,0-4.58-1.1c-2.67,0-3.83,1.44-3.83,2.77,0,1.78,1.33,2.6,4.42,3.8,4,1.51,6,3.52,6,6.84,0,3.7-2.81,6.95-8.76,6.95a13.68,13.68,0,0,1-6.23-1.47Z" transform="translate(-183.86 -240.81)"/><line class="cls-4" x1="0.8" y1="78.82" x2="475.14" y2="78.82"/></svg>