<svg id="Ebene_1" data-name="Ebene 1" xmlns="http://www.w3.org/2000/svg" viewBox="0 0 856.39 881.96"><defs><style>.cls-1,.cls-4{fill:none;}.cls-1,.cls-2,.cls-3,.cls-4{stroke:#575756;stroke-width:6px;}.cls-1,.cls-2{stroke-miterlimit:10;}.cls-2,.cls-3{fill:#fff;}.cls-3,.cls-4{stroke-linecap:round;stroke-linejoin:round;}</style></defs><title>cycle</title><path class="cls-1" d="M240.29,279.39" transform="translate(-181.92 -34.83)"/><rect class="cls-2" x="104.96" y="314.27" width="55.95" height="47.99" rx="12" ry="12"/><path class="cls-2" d="M396.67,242.33a81.81,81.81,0,1,0-125.76,69v27.87A15.91,15.91,0,0,0,286.77,355h56.18a15.91,15.91,0,0,0,15.86-15.86V311.31A81.72,81.72,0,0,0,396.67,242.33Z" transform="translate(-181.92 -34.83)"/><polygon class="cls-3" points="116.99 195.87 128.51 218.08 112.87 254.29 150.72 216.44 137.56 197.51 159.78 163.77 116.99 195.87"/><line class="cls-3" x1="132.94" y1="76.61" x2="132.94" y2="102.38"/><line class="cls-3" x1="53.4" y1="310.3" x2="66.28" y2="287.99"/><line class="cls-3" x1="3" y1="201.36" x2="28.77" y2="201.36"/><line class="cls-3" x1="14.93" y1="263.56" x2="37.25" y2="250.68"/><line class="cls-3" x1="69.09" y1="93.46" x2="81.97" y2="115.77"/><line class="cls-3" x1="24.22" y1="135.35" x2="46.54" y2="148.24"/><line class="cls-3" x1="210.77" y1="309.78" x2="197.88" y2="287.46"/><line class="cls-3" x1="261.17" y1="200.84" x2="235.4" y2="200.84"/><line class="cls-3" x1="249.23" y1="263.04" x2="226.91" y2="250.16"/><line class="cls-3" x1="195.08" y1="92.94" x2="182.19" y2="115.25"/><line class="cls-3" x1="239.95" y1="134.83" x2="217.63" y2="147.72"/><path class="cls-2" d="M1025.76,281.82l-22.41-12.94a119.08,119.08,0,0,0,0-60.64l22.41-12.94a19.19,19.19,0,0,0,7-26.14l-12.12-21a19.19,19.19,0,0,0-26.14-7l-22.51,13A118.49,118.49,0,0,0,919.57,124V97.9a19.19,19.19,0,0,0-19.14-19.14H876.2A19.19,19.19,0,0,0,857.06,97.9v26.28a118.51,118.51,0,0,0-52,30.19l-22.88-13.21a19.19,19.19,0,0,0-26.14,7l-12.12,21a19.19,19.19,0,0,0,7,26.14l22.93,13.24a119.27,119.27,0,0,0,0,60l-22.93,13.24a19.19,19.19,0,0,0-7,26.14l12.12,21a19.19,19.19,0,0,0,26.14,7L805,322.74a118.51,118.51,0,0,0,52,30.19v26.28a19.19,19.19,0,0,0,19.14,19.14h24.24a19.19,19.19,0,0,0,19.14-19.14V353.1A118.49,118.49,0,0,0,972,323l22.51,13a19.19,19.19,0,0,0,26.14-7l12.12-21A19.19,19.19,0,0,0,1025.76,281.82Z" transform="translate(-181.92 -34.83)"/><circle class="cls-1" cx="706.4" cy="203.73" r="81.81"/><polyline class="cls-3" points="684.51 177.49 652.59 205.47 684.51 230.22"/><line class="cls-3" x1="710.43" y1="167.17" x2="699.42" y2="240.29"/><polyline class="cls-3" points="728.29 177.36 760.21 205.34 728.29 230.1"/><rect class="cls-2" x="514.2" y="651.12" width="39.98" height="275.53" rx="12" ry="12" transform="translate(284.09 -196.23) rotate(30)"/><circle class="cls-2" cx="434.48" cy="611.68" r="117.76"/><circle class="cls-1" cx="434.48" cy="611.55" r="81.81"/><polyline class="cls-3" points="469.52 576.6 426.93 647.77 400.45 619.17"/><path class="cls-1" d="M416.88,697.93" transform="translate(-181.92 -34.83)"/><path class="cls-1" d="M827.75,700.6" transform="translate(-181.92 -34.83)"/><path class="cls-1" d="M1012,379.22" transform="translate(-181.92 -34.83)"/><path class="cls-4" d="M449,93.92" transform="translate(-181.92 -34.83)"/><path class="cls-4" d="M318.8,484.53" transform="translate(-181.92 -34.83)"/><path class="cls-4" d="M616.4,686.68" transform="translate(-181.92 -34.83)"/><path class="cls-4" d="M930.29,429.16" transform="translate(-181.92 -34.83)"/><path class="cls-4" d="M775.23,88.84" transform="translate(-181.92 -34.83)"/><polyline class="cls-4" points="123.03 444.42 130.36 419.71 148.09 438.41"/><polyline class="cls-4" points="631.27 594.6 605.75 598.22 615.37 574.31"/><polyline class="cls-4" points="589.58 29.25 599.25 53.13 573.73 49.57"/><path class="cls-4" d="M459.63,639.29" transform="translate(-181.92 -34.83)"/><path class="cls-4" d="M809.48,615.52" transform="translate(-181.92 -34.83)"/><path class="cls-4" d="M929.92,428.5a321.24,321.24,0,0,1-120.44,187" transform="translate(-181.92 -34.83)"/><path class="cls-4" d="M929.92,428.5" transform="translate(-181.92 -34.83)"/><path class="cls-4" d="M760.82,72.08" transform="translate(-181.92 -34.83)"/><path class="cls-4" d="M432.91,95.34a321.49,321.49,0,0,1,327.9-23.26" transform="translate(-181.92 -34.83)"/><path class="cls-4" d="M432.91,95.34" transform="translate(-181.92 -34.83)"/><path class="cls-4" d="M319,480.46" transform="translate(-181.92 -34.83)"/><path class="cls-4" d="M459.63,639.29A322.33,322.33,0,0,1,319,480.46" transform="translate(-181.92 -34.83)"/></svg>