<svg id="Ebene_1" data-name="Ebene 1" xmlns="http://www.w3.org/2000/svg" viewBox="0 0 437.08 337.37"><defs><style>.cls-1{fill:#fff;}.cls-2{fill:#575756;}</style></defs><title>design</title><rect class="cls-1" x="2.5" y="108.11" width="395" height="226.76" rx="12" ry="12"/><path class="cls-2" d="M387.51,337.37h-375A12.5,12.5,0,0,1,0,324.89V118.1a12.5,12.5,0,0,1,12.49-12.49h375A12.5,12.5,0,0,1,400,118.1V324.89A12.5,12.5,0,0,1,387.51,337.37Zm-375-226.76A7.5,7.5,0,0,0,5,118.1V324.89a7.5,7.5,0,0,0,7.49,7.49h375a7.5,7.5,0,0,0,7.49-7.49V118.1a7.5,7.5,0,0,0-7.49-7.49Z"/><path class="cls-1" d="M355.85,130.41l-14.12-8.15a75,75,0,0,0,0-38.2l14.12-8.15a12.09,12.09,0,0,0,4.41-16.47l-7.63-13.22a12.09,12.09,0,0,0-16.47-4.41L322,50a74.65,74.65,0,0,0-33-19V14.55A12.09,12.09,0,0,0,276.9,2.5H261.64a12.09,12.09,0,0,0-12.05,12.05V31.11a74.66,74.66,0,0,0-32.79,19L202.38,41.8a12.09,12.09,0,0,0-16.47,4.41l-7.63,13.22a12.09,12.09,0,0,0,4.41,16.47l14.44,8.34a75.14,75.14,0,0,0,0,37.83l-14.44,8.34a12.09,12.09,0,0,0-4.41,16.47l7.63,13.22a12.09,12.09,0,0,0,16.47,4.41l14.41-8.32a74.66,74.66,0,0,0,32.79,19v16.55a12.09,12.09,0,0,0,12.05,12.05H276.9A12.09,12.09,0,0,0,289,191.77V175.32a74.65,74.65,0,0,0,33-19l14.18,8.19a12.09,12.09,0,0,0,16.47-4.41l7.63-13.22A12.09,12.09,0,0,0,355.85,130.41Z"/><path class="cls-2" d="M276.9,206.32H261.64a14.57,14.57,0,0,1-14.55-14.55V177.09a77.35,77.35,0,0,1-30.67-17.79l-12.78,7.38a14.57,14.57,0,0,1-19.88-5.33l-7.63-13.22a14.59,14.59,0,0,1,5.33-19.88l12.82-7.4a77.64,77.64,0,0,1,0-35.38l-12.82-7.4a14.59,14.59,0,0,1-5.33-19.88L183.75,45a14.57,14.57,0,0,1,19.88-5.33L216.41,47a77.35,77.35,0,0,1,30.67-17.79V14.55A14.57,14.57,0,0,1,261.64,0H276.9a14.57,14.57,0,0,1,14.55,14.55V29.11a77.32,77.32,0,0,1,30.9,17.78l12.55-7.25A14.57,14.57,0,0,1,354.79,45l7.63,13.22a14.59,14.59,0,0,1-5.33,19.88l-12.49,7.21a77.54,77.54,0,0,1,0,35.76l12.49,7.21a14.59,14.59,0,0,1,5.33,19.88l-7.63,13.22a14.57,14.57,0,0,1-19.88,5.33l-12.55-7.25a77.32,77.32,0,0,1-30.9,17.78v14.56A14.57,14.57,0,0,1,276.9,206.32ZM217.2,153.07l1.36,1.35a72.31,72.31,0,0,0,31.69,18.38l1.83.5v18.46a9.57,9.57,0,0,0,9.56,9.56H276.9a9.57,9.57,0,0,0,9.56-9.56V173.41l1.85-.5a72.28,72.28,0,0,0,31.92-18.36l1.35-1.34,15.83,9.14a9.57,9.57,0,0,0,13.06-3.5l7.63-13.22a9.59,9.59,0,0,0-3.5-13.06l-15.77-9.11.49-1.85a72.51,72.51,0,0,0,0-36.93l-.49-1.85,15.77-9.11a9.59,9.59,0,0,0,3.5-13.06l-7.63-13.22A9.57,9.57,0,0,0,337.41,44l-15.83,9.14-1.35-1.34a72.29,72.29,0,0,0-31.92-18.36l-1.85-.5V14.55A9.57,9.57,0,0,0,276.9,5H261.64a9.57,9.57,0,0,0-9.56,9.56V33l-1.83.51A72.31,72.31,0,0,0,218.55,51.9l-1.36,1.35L201.13,44a9.57,9.57,0,0,0-13.06,3.5l-7.63,13.22a9.59,9.59,0,0,0,3.5,13.06L200,83l-.48,1.84a72.62,72.62,0,0,0,0,36.57l.48,1.84-16.09,9.29a9.59,9.59,0,0,0-3.5,13.06l7.63,13.22a9.57,9.57,0,0,0,13.06,3.5Z"/><path class="cls-2" d="M269.27,157.19a54,54,0,1,1,54-54A54.09,54.09,0,0,1,269.27,157.19Zm0-103.07a49,49,0,1,0,49,49A49.09,49.09,0,0,0,269.27,54.12Z"/><path class="cls-2" d="M87.41,162.17H4.16a2.5,2.5,0,0,1,0-5H87.41a2.5,2.5,0,0,1,0,5Z"/><path class="cls-2" d="M89.3,170.29A2.5,2.5,0,0,1,88,165.63l10.31-6-10.31-6a2.5,2.5,0,0,1,2.5-4.33l14.06,8.12a2.5,2.5,0,0,1,0,4.33L90.54,170A2.49,2.49,0,0,1,89.3,170.29Z"/><path class="cls-2" d="M144.24,196.33H2.5a2.5,2.5,0,1,1,0-5H141.74V151.55a2.5,2.5,0,0,1,5,0v42.28A2.5,2.5,0,0,1,144.24,196.33Z"/><path class="cls-2" d="M151.74,150.16a2.5,2.5,0,0,1-2.17-1.25l-6-10.31-6,10.31a2.5,2.5,0,1,1-4.33-2.5l8.12-14.06a2.5,2.5,0,0,1,4.33,0l8.12,14.06a2.5,2.5,0,0,1-2.16,3.75Z"/><path class="cls-2" d="M395,222.74H2.48a2.5,2.5,0,0,1,0-5H395a2.5,2.5,0,0,1,0,5Z"/><path class="cls-2" d="M292.83,281.71a2.5,2.5,0,0,1-2.17-1.25l-6-10.31-6,10.31a2.5,2.5,0,1,1-4.33-2.5l8.12-14.06a2.5,2.5,0,0,1,4.33,0L295,278a2.5,2.5,0,0,1-2.16,3.75Z"/><path class="cls-2" d="M284.72,268a2.5,2.5,0,0,1-2.16-1.25l-8.12-14.06a2.5,2.5,0,0,1,4.33-2.5l6,10.31,6-10.31a2.5,2.5,0,0,1,4.33,2.5l-8.12,14.06A2.5,2.5,0,0,1,284.72,268Z"/><path class="cls-2" d="M332.2,312.39h0l-148.43-1.27a2.5,2.5,0,0,1-2.48-2.51l.3-65.35H2.5a2.5,2.5,0,0,1,0-5H184.08a2.5,2.5,0,0,1,2.5,2.51l-.3,65.37,145.94,1.25a2.5,2.5,0,0,1,0,5Z"/><polyline class="cls-1" points="255.48 90.79 235.37 108.42 255.48 124.01"/><path class="cls-2" d="M255.48,126.51a2.49,2.49,0,0,1-1.53-.52l-20.1-15.59a2.5,2.5,0,0,1-.12-3.85l20.1-17.63a2.5,2.5,0,1,1,3.29,3.76L239.3,108.3,257,122a2.5,2.5,0,0,1-1.53,4.47Z"/><line class="cls-1" x1="271.81" y1="80.13" x2="264.87" y2="126.19"/><path class="cls-2" d="M264.87,128.69l-.37,0a2.5,2.5,0,0,1-2.1-2.84l6.94-46.07a2.5,2.5,0,0,1,4.94.74l-6.94,46.07A2.5,2.5,0,0,1,264.87,128.69Z"/><polyline class="cls-1" points="283.06 90.71 303.17 108.34 283.06 123.93"/><path class="cls-2" d="M283.06,126.43a2.5,2.5,0,0,1-1.53-4.47l17.71-13.74L281.42,92.59a2.5,2.5,0,1,1,3.29-3.76l20.1,17.63a2.5,2.5,0,0,1-.12,3.85l-20.1,15.59A2.49,2.49,0,0,1,283.06,126.43Z"/><path class="cls-2" d="M357.71,326.25a2.5,2.5,0,0,1-2.17-1.25l-6-10.31-6,10.31a2.5,2.5,0,0,1-4.33-2.5l8.12-14.06a2.5,2.5,0,0,1,4.33,0l8.12,14.06a2.5,2.5,0,0,1-2.16,3.75Z"/><path class="cls-2" d="M349.59,312.59a2.5,2.5,0,0,1-2.16-1.25l-8.12-14.06a2.5,2.5,0,1,1,4.33-2.5l6,10.31,6-10.31a2.5,2.5,0,1,1,4.33,2.5l-8.12,14.06A2.5,2.5,0,0,1,349.59,312.59Z"/><path class="cls-2" d="M267.65,267.85H251.32a2.5,2.5,0,0,1-2.5-2.5V243.26H184.08a2.5,2.5,0,0,1,0-5h67.24a2.5,2.5,0,0,1,2.5,2.5v22.09h13.83a2.5,2.5,0,0,1,0,5Z"/></svg>