<svg id="Ebene_1" data-name="Ebene 1" xmlns="http://www.w3.org/2000/svg" viewBox="0 0 437.08 278.8"><defs><style>.cls-1{fill:#fff;}.cls-2{fill:#575756;}</style></defs><title>inspect</title><rect class="cls-1" x="2.5" y="2.5" width="395.01" height="226.76" rx="12" ry="12"/><path class="cls-2" d="M387.51,240.86h-375A12.5,12.5,0,0,1,0,228.38V21.59A12.5,12.5,0,0,1,12.49,9.11h375A12.5,12.5,0,0,1,400,21.59V228.38A12.5,12.5,0,0,1,387.51,240.86ZM12.49,14.1A7.5,7.5,0,0,0,5,21.59V228.38a7.5,7.5,0,0,0,7.49,7.49h375a7.5,7.5,0,0,0,7.49-7.49V21.59a7.5,7.5,0,0,0-7.49-7.49Z" transform="translate(0 -9.11)"/><rect class="cls-1" x="295.44" y="120.13" width="25.29" height="174.29" rx="11.55" ry="11.55" transform="translate(144.91 -135.38) rotate(30)"/><path class="cls-2" d="M271.75,287.9a12.42,12.42,0,0,1-6.23-1.68L261,283.61a12.57,12.57,0,0,1-4.59-17.13l77.11-133.56a12.55,12.55,0,0,1,17.13-4.59l4.53,2.61a12.57,12.57,0,0,1,4.59,17.13L282.65,281.64a12.45,12.45,0,0,1-7.62,5.83A12.67,12.67,0,0,1,271.75,287.9Zm-3.72-6a7.55,7.55,0,0,0,10.28-2.75l77.11-133.56a7.55,7.55,0,0,0-2.75-10.28l-4.53-2.61a7.53,7.53,0,0,0-10.28,2.75L260.75,269a7.53,7.53,0,0,0,2.75,10.28Z" transform="translate(0 -9.11)"/><line class="cls-1" x1="232.97" y1="114.65" x2="4.17" y2="114.65"/><path class="cls-2" d="M233,126.26H4.17a2.51,2.51,0,0,1,0-5H233a2.51,2.51,0,0,1,0,5Z" transform="translate(0 -9.11)"/><path class="cls-2" d="M258.38,140a2.51,2.51,0,0,1-2.17-1.25l-6-10.36-6,10.36a2.51,2.51,0,1,1-4.34-2.51l8.15-14.12a2.51,2.51,0,0,1,4.34,0l8.15,14.12a2.51,2.51,0,0,1-2.17,3.76Z" transform="translate(0 -9.11)"/><path class="cls-2" d="M250.22,126.26a2.51,2.51,0,0,1-2.17-1.25l-8.15-14.12a2.51,2.51,0,1,1,4.34-2.51l6,10.36,6-10.36a2.51,2.51,0,1,1,4.34,2.51L252.39,125A2.51,2.51,0,0,1,250.22,126.26Z" transform="translate(0 -9.11)"/><line class="cls-1" x1="108.95" y1="40.23" x2="37.06" y2="40.23"/><path class="cls-2" d="M109,51.84H37.06a2.51,2.51,0,0,1,0-5H109a2.51,2.51,0,0,1,0,5Z" transform="translate(0 -9.11)"/><line class="cls-1" x1="133.33" y1="55.83" x2="37.06" y2="55.83"/><path class="cls-2" d="M133.33,67.44H37.06a2.51,2.51,0,0,1,0-5h96.28a2.51,2.51,0,1,1,0,5Z" transform="translate(0 -9.11)"/><polyline class="cls-1" points="39.56 142.39 39.56 200.07 135.84 200.07"/><path class="cls-2" d="M135.84,211.68H39.56a2.51,2.51,0,0,1-2.51-2.51V151.5a2.51,2.51,0,0,1,5,0v55.17h93.77a2.51,2.51,0,0,1,0,5Z" transform="translate(0 -9.11)"/><line class="cls-1" x1="36.64" y1="149" x2="30.36" y2="149"/><path class="cls-2" d="M36.64,160.61H30.36a2.51,2.51,0,1,1,0-5h6.28a2.51,2.51,0,1,1,0,5Z" transform="translate(0 -9.11)"/><line class="cls-1" x1="36.64" y1="160.1" x2="30.36" y2="160.1"/><path class="cls-2" d="M36.64,171.71H30.36a2.51,2.51,0,0,1,0-5h6.28a2.51,2.51,0,0,1,0,5Z" transform="translate(0 -9.11)"/><line class="cls-1" x1="36.64" y1="182.29" x2="30.36" y2="182.29"/><path class="cls-2" d="M36.64,193.9H30.36a2.51,2.51,0,1,1,0-5h6.28a2.51,2.51,0,1,1,0,5Z" transform="translate(0 -9.11)"/><line class="cls-1" x1="36.64" y1="193.38" x2="30.36" y2="193.38"/><path class="cls-2" d="M36.64,205H30.36a2.51,2.51,0,0,1,0-5h6.28a2.51,2.51,0,0,1,0,5Z" transform="translate(0 -9.11)"/><line class="cls-1" x1="36.64" y1="170.96" x2="30.36" y2="170.96"/><path class="cls-2" d="M36.64,182.58H30.36a2.51,2.51,0,0,1,0-5h6.28a2.51,2.51,0,0,1,0,5Z" transform="translate(0 -9.11)"/><polyline class="cls-1" points="46.25 193.38 61.85 176.66 84.15 176.66 91.39 168.68 119.26 142.39"/><path class="cls-2" d="M46.25,205a2.51,2.51,0,0,1-1.83-4.22L60,184.06a2.51,2.51,0,0,1,1.83-.8H83l6.5-7.16.14-.14,27.86-26.29a2.51,2.51,0,1,1,3.44,3.65L93.18,179.55,86,187.46a2.51,2.51,0,0,1-1.86.82H62.95L48.09,204.2A2.5,2.5,0,0,1,46.25,205Z" transform="translate(0 -9.11)"/><circle class="cls-1" cx="360.08" cy="108.11" r="74.49"/><path class="cls-2" d="M360.08,194.22a77,77,0,1,1,77-77A77.09,77.09,0,0,1,360.08,194.22Zm0-149a72,72,0,1,0,72,72A72.07,72.07,0,0,0,360.08,45.23Z" transform="translate(0 -9.11)"/><path class="cls-2" d="M360.08,171.39a54.26,54.26,0,1,1,54.25-54.26A54.32,54.32,0,0,1,360.08,171.39Zm0-103.49a49.24,49.24,0,1,0,49.24,49.24A49.3,49.3,0,0,0,360.08,67.9Z" transform="translate(0 -9.11)"/><line class="cls-1" x1="133.33" y1="68.14" x2="37.06" y2="68.14"/><path class="cls-2" d="M133.33,79.76H37.06a2.51,2.51,0,0,1,0-5h96.28a2.51,2.51,0,1,1,0,5Z" transform="translate(0 -9.11)"/><line class="cls-1" x1="133.33" y1="81.14" x2="37.06" y2="81.14"/><path class="cls-2" d="M133.33,92.75H37.06a2.51,2.51,0,0,1,0-5h96.28a2.51,2.51,0,1,1,0,5Z" transform="translate(0 -9.11)"/><line class="cls-1" x1="234.64" y1="40.23" x2="162.75" y2="40.23"/><path class="cls-2" d="M234.65,51.84h-71.9a2.51,2.51,0,0,1,0-5h71.9a2.51,2.51,0,0,1,0,5Z" transform="translate(0 -9.11)"/><line class="cls-1" x1="259.02" y1="55.83" x2="162.75" y2="55.83"/><path class="cls-2" d="M259,67.44H162.75a2.51,2.51,0,0,1,0-5H259a2.51,2.51,0,0,1,0,5Z" transform="translate(0 -9.11)"/><line class="cls-1" x1="259.02" y1="68.14" x2="162.75" y2="68.14"/><path class="cls-2" d="M259,79.76H162.75a2.51,2.51,0,0,1,0-5H259a2.51,2.51,0,0,1,0,5Z" transform="translate(0 -9.11)"/><line class="cls-1" x1="259.02" y1="81.14" x2="162.75" y2="81.14"/><path class="cls-2" d="M259,92.75H162.75a2.51,2.51,0,0,1,0-5H259a2.51,2.51,0,0,1,0,5Z" transform="translate(0 -9.11)"/><polyline class="cls-1" points="382.24 85.92 355.3 130.94 338.55 112.85"/><path class="cls-2" d="M355.3,142.55a2.51,2.51,0,0,1-1.84-.8l-16.75-18.09a2.51,2.51,0,0,1,3.68-3.41l14.47,15.63,25.23-42.15a2.51,2.51,0,1,1,4.3,2.58l-26.95,45a2.51,2.51,0,0,1-1.89,1.21Z" transform="translate(0 -9.11)"/><line class="cls-1" x1="234.47" y1="156.6" x2="162.57" y2="156.6"/><path class="cls-2" d="M234.47,168.22h-71.9a2.51,2.51,0,0,1,0-5h71.9a2.51,2.51,0,0,1,0,5Z" transform="translate(0 -9.11)"/><line class="cls-1" x1="258.85" y1="172.21" x2="162.57" y2="172.21"/><path class="cls-2" d="M258.85,183.82H162.57a2.51,2.51,0,0,1,0-5h96.28a2.51,2.51,0,1,1,0,5Z" transform="translate(0 -9.11)"/><line class="cls-1" x1="258.85" y1="184.52" x2="162.57" y2="184.52"/><path class="cls-2" d="M258.85,196.13H162.57a2.51,2.51,0,0,1,0-5h96.28a2.51,2.51,0,1,1,0,5Z" transform="translate(0 -9.11)"/><line class="cls-1" x1="258.85" y1="197.51" x2="162.57" y2="197.51"/><path class="cls-2" d="M258.85,209.13H162.57a2.51,2.51,0,1,1,0-5h96.28a2.51,2.51,0,1,1,0,5Z" transform="translate(0 -9.11)"/></svg>