<svg id="Ebene_1" data-name="Ebene 1" xmlns="http://www.w3.org/2000/svg" viewBox="0 0 130.79 18.34"><defs><style>.cls-1{fill:#fff;}.cls-2{fill:none;stroke:#308bb0;stroke-linejoin:round;stroke-width:0.75px;}.cls-3{fill:#36a9e1;}.cls-4{fill:#8e949a;}</style></defs><title>process_engine_white_background</title><rect class="cls-1" x="67.66" y="6.93" width="62.5" height="8.58" rx="3.03" ry="3.03"/><path class="cls-1" d="M69.46,17.11s-6.36-.14-13.18,0c-13.65.27-14.84-1-15.27-3.08-.36-1.72-1.42-4.22-4.42-4.22a4.2,4.2,0,0,0-4.2,4.2c0,1.84-1.84,2.73-3.31,2.73H15c-1.56,0-3.69,1.65-3.69,3.2v2.12c.38,1.34.77,2.15,1.73,2.61,0,0,0,0,0,0a1.45,1.45,0,0,0,1.42,1.81H15a1.46,1.46,0,0,0,1.45-1.34s0,0,0,0L27.33,25a9.29,9.29,0,0,1,1.58,1.49,6,6,0,0,0,4.23,1.63l.68,0a7.62,7.62,0,0,0,3.81-1.73,15.86,15.86,0,0,1,1.77-1.11l30.07-.39a2.84,2.84,0,0,0,2.83-2.83V19.93A2.84,2.84,0,0,0,69.46,17.11Z" transform="translate(-11.26 -9.8)"/><path class="cls-2" d="M37.27,11.38" transform="translate(-11.26 -9.8)"/><path class="cls-3" d="M46.36,22.59v.51c0,.18-.08.26-.26.26H40.7a1.34,1.34,0,0,1-1.42-1.41V20.09a1.34,1.34,0,0,1,1.42-1.41H46.1c.18,0,.26.08.26.26v.51c0,.18-.08.26-.26.26h-5a.57.57,0,0,0-.62.62v1.37a.57.57,0,0,0,.62.62h5C46.28,22.33,46.36,22.41,46.36,22.59Z" transform="translate(-11.26 -9.8)"/><path class="cls-3" d="M53.35,18.68A1.15,1.15,0,0,1,54.64,20v.23a1.15,1.15,0,0,1-1.29,1.28h-5v.23a.57.57,0,0,0,.62.62h5.15a.23.23,0,0,1,.26.26v.51a.23.23,0,0,1-.26.26H48.62a1.34,1.34,0,0,1-1.42-1.41V20.09a1.34,1.34,0,0,1,1.42-1.41Zm-5,1.89h4.67c.3,0,.41-.14.41-.41v0c0-.27-.11-.41-.41-.41H49a.57.57,0,0,0-.62.62Z" transform="translate(-11.26 -9.8)"/><path class="cls-3" d="M55.65,23.36c-.18,0-.26-.08-.26-.26v-.51c0-.18.08-.26.26-.26H61c.3,0,.41-.13.41-.41v0c0-.26-.11-.41-.41-.41H56.53a1.14,1.14,0,0,1-1.28-1.28V20a1.15,1.15,0,0,1,1.28-1.28h5.58c.17,0,.25.08.25.26v.51c0,.18-.08.26-.25.26H56.83c-.3,0-.41.14-.41.41v0c0,.26.11.41.41.41h4.48a1.14,1.14,0,0,1,1.28,1.28v.23a1.15,1.15,0,0,1-1.28,1.28Z" transform="translate(-11.26 -9.8)"/><path class="cls-3" d="M63.62,23.36c-.18,0-.26-.08-.26-.26v-.51c0-.18.08-.26.26-.26H69c.3,0,.41-.13.41-.41v0c0-.26-.11-.41-.41-.41H64.5a1.14,1.14,0,0,1-1.28-1.28V20a1.15,1.15,0,0,1,1.28-1.28h5.58c.17,0,.25.08.25.26v.51c0,.18-.08.26-.25.26H64.8c-.3,0-.41.14-.41.41v0c0,.26.11.41.41.41h4.48a1.14,1.14,0,0,1,1.28,1.28v.23a1.15,1.15,0,0,1-1.28,1.28Z" transform="translate(-11.26 -9.8)"/><path class="cls-3" d="M74.17,20.81c0-.17.08-.26.25-.26h2.86c.17,0,.25.09.25.26v.57c0,.17-.08.26-.25.26H74.43c-.17,0-.25-.09-.25-.26Z" transform="translate(-11.26 -9.8)"/><path class="cls-3" d="M16.45,23.34a1.29,1.29,0,0,1-1.12-.5V25c0,.18-.08.26-.26.26h-.66c-.17,0-.25-.08-.25-.26V20.08a1.34,1.34,0,0,1,1.41-1.41h4.68a1.34,1.34,0,0,1,1.42,1.41v1.85a1.34,1.34,0,0,1-1.42,1.41Zm-1.12-1.66a.57.57,0,0,0,.62.62h3.92a.57.57,0,0,0,.62-.62V20.32a.57.57,0,0,0-.62-.62H15.95a.57.57,0,0,0-.62.62Z" transform="translate(-11.26 -9.8)"/><path class="cls-3" d="M24.13,18.66h3.22a.23.23,0,0,1,.26.26v.51a.23.23,0,0,1-.26.26H24.51a.57.57,0,0,0-.62.62v2.76c0,.18-.08.26-.26.26H23c-.17,0-.25-.08-.25-.26v-3A1.34,1.34,0,0,1,24.13,18.66Z" transform="translate(-11.26 -9.8)"/><path class="cls-3" d="M87.43,18.68A1.15,1.15,0,0,1,88.72,20v.23a1.15,1.15,0,0,1-1.29,1.28h-5v.23a.57.57,0,0,0,.62.62h5.15a.23.23,0,0,1,.26.26v.51a.23.23,0,0,1-.26.26H82.71a1.34,1.34,0,0,1-1.42-1.41V20.09a1.34,1.34,0,0,1,1.42-1.41Zm-5,1.89h4.67c.3,0,.41-.14.41-.41v0c0-.27-.11-.41-.41-.41H83.08a.57.57,0,0,0-.62.62Z" transform="translate(-11.26 -9.8)"/><path class="cls-3" d="M91,18.68H95.5a1.34,1.34,0,0,1,1.41,1.41v3c0,.18-.08.26-.26.26H96c-.17,0-.25-.08-.25-.26V20.34a.58.58,0,0,0-.62-.62H91.36a.57.57,0,0,0-.62.62V23.1c0,.18-.08.26-.26.26h-.66c-.17,0-.25-.08-.25-.26v-3A1.34,1.34,0,0,1,91,18.68Z" transform="translate(-11.26 -9.8)"/><path class="cls-3" d="M99.37,23.36A1.34,1.34,0,0,1,98,21.95V20.09a1.34,1.34,0,0,1,1.42-1.41h4.68a1.34,1.34,0,0,1,1.42,1.41v3.65a1.44,1.44,0,0,1-1.55,1.54h-5.4a.23.23,0,0,1-.26-.26v-.47a.23.23,0,0,1,.26-.26h5.1a.61.61,0,0,0,.67-.68v-.76a1.3,1.3,0,0,1-1.12.5Zm4.92-3a.57.57,0,0,0-.62-.62H99.75a.57.57,0,0,0-.62.62V21.7a.57.57,0,0,0,.62.62h3.92a.57.57,0,0,0,.62-.62Z" transform="translate(-11.26 -9.8)"/><path class="cls-3" d="M107.73,17.65a.23.23,0,0,1-.26.26h-.66c-.17,0-.25-.09-.25-.26V17c0-.18.08-.26.25-.26h.66c.18,0,.26.08.26.26Zm.39,4.67h.38c.18,0,.26.08.26.26v.51c0,.18-.08.26-.26.26h-.67a1.14,1.14,0,0,1-1.27-1.28V18.94c0-.18.08-.26.25-.26h.66c.18,0,.26.08.26.26v3C107.73,22.19,107.84,22.33,108.12,22.33Z" transform="translate(-11.26 -9.8)"/><path class="cls-3" d="M110.93,18.68h4.51a1.34,1.34,0,0,1,1.41,1.41v3c0,.18-.08.26-.26.26h-.66c-.17,0-.25-.08-.25-.26V20.34a.58.58,0,0,0-.62-.62h-3.75a.57.57,0,0,0-.62.62V23.1c0,.18-.08.26-.26.26h-.66c-.17,0-.25-.08-.25-.26v-3A1.34,1.34,0,0,1,110.93,18.68Z" transform="translate(-11.26 -9.8)"/><path class="cls-3" d="M124,18.68A1.15,1.15,0,0,1,125.33,20v.23A1.15,1.15,0,0,1,124,21.47h-5v.23a.57.57,0,0,0,.62.62h5.15a.23.23,0,0,1,.26.26v.51a.23.23,0,0,1-.26.26h-5.53a1.34,1.34,0,0,1-1.42-1.41V20.09a1.34,1.34,0,0,1,1.42-1.41Zm-5,1.89h4.67c.3,0,.41-.14.41-.41v0c0-.27-.11-.41-.41-.41H119.7a.57.57,0,0,0-.62.62Z" transform="translate(-11.26 -9.8)"/><path class="cls-3" d="M126.18,23.08v-.72a.25.25,0,0,1,.28-.29h.89a.25.25,0,0,1,.28.29v.72a.25.25,0,0,1-.28.28h-.89A.25.25,0,0,1,126.18,23.08Z" transform="translate(-11.26 -9.8)"/><path class="cls-3" d="M129.88,17.65a.23.23,0,0,1-.26.26H129c-.17,0-.25-.09-.25-.26V17c0-.18.08-.26.25-.26h.66c.18,0,.26.08.26.26Zm.39,4.67h.38c.18,0,.26.08.26.26v.51c0,.18-.08.26-.26.26H130a1.14,1.14,0,0,1-1.27-1.28V18.94c0-.18.08-.26.25-.26h.66c.18,0,.26.08.26.26v3C129.88,22.19,130,22.33,130.27,22.33Z" transform="translate(-11.26 -9.8)"/><path class="cls-3" d="M131.61,21.95V20.09A1.34,1.34,0,0,1,133,18.68h4.68a1.34,1.34,0,0,1,1.42,1.41v1.85a1.34,1.34,0,0,1-1.42,1.41H133A1.34,1.34,0,0,1,131.61,21.95Zm1.18-1.61V21.7a.57.57,0,0,0,.62.62h3.92a.57.57,0,0,0,.62-.62V20.34a.57.57,0,0,0-.62-.62h-3.92A.57.57,0,0,0,132.79,20.34Z" transform="translate(-11.26 -9.8)"/><path class="cls-4" d="M69.94,17.72H39.54a.23.23,0,0,1-.26-.26V17a.23.23,0,0,1,.26-.26h30.4a3.33,3.33,0,0,1,3.33,3.33V22a3.33,3.33,0,0,1-3.33,3.33H39.54a.23.23,0,0,1-.26-.26v-.47a.23.23,0,0,1,.26-.26h30.4A2.34,2.34,0,0,0,72.28,22V20.06A2.34,2.34,0,0,0,69.94,17.72Z" transform="translate(-11.26 -9.8)"/><path class="cls-4" d="M81.78,17.7H105.2a.23.23,0,0,0,.26-.26V17a.23.23,0,0,0-.26-.26H81.78A3.33,3.33,0,0,0,78.45,20V22a3.33,3.33,0,0,0,3.33,3.33H96.64A.23.23,0,0,0,96.9,25v-.48a.23.23,0,0,0-.26-.26H81.77A2.32,2.32,0,0,1,79.44,22V20A2.34,2.34,0,0,1,81.78,17.7Z" transform="translate(-11.26 -9.8)"/><path class="cls-4" d="M127.41,16.73H109.73c-.14,0-.22.08-.22.26v.47c0,.18.07.26.22.26h17.68c.14,0,.22-.08.22-.26V17C127.62,16.81,127.55,16.73,127.41,16.73Z" transform="translate(-11.26 -9.8)"/><path class="cls-4" d="M138.72,16.73h-6.89c-.14,0-.22.08-.22.26v.47c0,.18.07.26.22.26h6.89a2.34,2.34,0,0,1,2.34,2.34V22a2.41,2.41,0,0,1-2.43,2.32H106.79c-.14,0-.22.08-.22.26V25c0,.18.07.26.22.26l31.93,0A3.33,3.33,0,0,0,142,22V20.06A3.33,3.33,0,0,0,138.72,16.73Z" transform="translate(-11.26 -9.8)"/><path class="cls-4" d="M16.45,24.55V25c0,.18.07.26.21.26H27.35a.23.23,0,0,0,.26-.26v-.47a.23.23,0,0,0-.26-.26H16.67C16.53,24.28,16.45,24.37,16.45,24.55Z" transform="translate(-11.26 -9.8)"/><path class="cls-4" d="M27.35,16.72H14.59a3.33,3.33,0,0,0-3.33,3.33V22a3.32,3.32,0,0,0,1.65,2.86h0a.23.23,0,0,0,.36-.07l.26-.39c.1-.15.09-.26,0-.36h0A2.33,2.33,0,0,1,12.25,22V20.05a2.34,2.34,0,0,1,2.34-2.34H27.35a.23.23,0,0,0,.26-.26V17A.23.23,0,0,0,27.35,16.72Z" transform="translate(-11.26 -9.8)"/><path class="cls-4" d="M36.94,22.82l1.39-.09a4.81,4.81,0,0,0,0-1.92L37,20.69a3.92,3.92,0,0,0-.33-.84l.92-1a5.26,5.26,0,0,0-1.34-1.37l-1.07.89a2.26,2.26,0,0,0-.83-.36l-.09-1.39a4.81,4.81,0,0,0-1.92,0l-.13,1.37a3.92,3.92,0,0,0-.84.33l-1-.92a5.26,5.26,0,0,0-1.37,1.34l.89,1.07a3.87,3.87,0,0,0-.22.4,3.87,3.87,0,0,0-.14.43l-1.39.09a4.81,4.81,0,0,0,0,1.92l1.37.13a3.92,3.92,0,0,0,.33.84l-.92,1A5.26,5.26,0,0,0,30.17,26l1.07-.89a2.27,2.27,0,0,0,.83.36l.09,1.39a4.81,4.81,0,0,0,1.92,0l.13-1.37a3.92,3.92,0,0,0,.84-.33l1,.92a5.26,5.26,0,0,0,1.37-1.34l-.89-1.07a3.87,3.87,0,0,0,.22-.4A3.86,3.86,0,0,0,36.94,22.82Zm-3.74.76a1.89,1.89,0,1,1,1.89-1.89A1.89,1.89,0,0,1,33.2,23.58Z" transform="translate(-11.26 -9.8)"/><path class="cls-4" d="M38.71,15.71l.92.31a3.35,3.35,0,0,0,.52-1.23l-.85-.45a2.73,2.73,0,0,0,0-.63l.87-.43a3.67,3.67,0,0,0-.5-1.24l-.92.29a2.69,2.69,0,0,0-.2-.25,2.7,2.7,0,0,0-.24-.2l.31-.92a3.35,3.35,0,0,0-1.23-.52l-.45.85a2.73,2.73,0,0,0-.63,0l-.43-.87a3.67,3.67,0,0,0-1.24.5l.29.92a2.69,2.69,0,0,0-.25.2,2.69,2.69,0,0,0-.2.24L33.55,12A3.35,3.35,0,0,0,33,13.21l.85.45a2.73,2.73,0,0,0,0,.63l-.87.43a3.66,3.66,0,0,0,.5,1.24l.92-.29a2.69,2.69,0,0,0,.2.25,2.69,2.69,0,0,0,.24.2l-.31.92a3.35,3.35,0,0,0,1.23.52l.45-.85a2.73,2.73,0,0,0,.63,0l.43.87a3.67,3.67,0,0,0,1.24-.5l-.29-.92a2.69,2.69,0,0,0,.25-.2A2.69,2.69,0,0,0,38.71,15.71Zm-2.57-.46a1.31,1.31,0,1,1,1.71-.72A1.31,1.31,0,0,1,36.14,15.26Z" transform="translate(-11.26 -9.8)"/></svg>