<svg id="Ebene_1" data-name="Ebene 1" xmlns="http://www.w3.org/2000/svg" viewBox="0 0 600 600"><defs><style>.cls-1{fill:#fff;}.cls-2{fill:#325f7b;}.cls-3{fill:#fefefe;}</style></defs><title>quantusflowlogo_large_whitebg</title><path class="cls-1" d="M.6.6h600v600H.6Q.6,300.6.6.6Z" transform="translate(-0.6 -0.6)"/><path class="cls-2" d="M12.78,12.67H588.42V588.42H12.78Z" transform="translate(-0.6 -0.6)"/><path class="cls-3" d="M36.67,564.42V36.78H564.42V564.42Z" transform="translate(-0.6 -0.6)"/><path class="cls-2" d="M386.72,377.36l25.52,24.16-24.45,25.62-27-25.51c-2.86,1.58-5.47,3-8.07,4.47a81.72,81.72,0,0,1-29.33,9.62,144.4,144.4,0,0,1-31.67.79,109.25,109.25,0,0,1-33.27-7.89,96.29,96.29,0,0,1-26.46-16.68c-17.28-15.21-27.19-34.53-32.23-56.73-3.77-16.62-4.28-33.45-3.33-50.32.86-15.38,3.87-30.41,10.06-44.65q15.67-36.07,51.68-52a106.23,106.23,0,0,1,28.71-7.78,129.25,129.25,0,0,1,23-1c19.92.85,38.52,6.13,55.1,17.46,21.59,14.76,35.33,35,41.87,60.31,3.53,13.63,4.52,27.5,4.35,41.52-.16,12.61-1.21,25.12-4.45,37.32s-7.36,24-14.79,34.39C390.31,372.76,388.57,374.93,386.72,377.36Z" transform="translate(-0.6 -0.6)"/><path class="cls-1" d="M329.12,371.49A54.57,54.57,0,0,1,316.24,376a60.06,60.06,0,0,1-32.74-1.85,54.06,54.06,0,0,1-29.64-24.85,80.32,80.32,0,0,1-9.21-26.67,140.42,140.42,0,0,1-2-25.92c.16-13,1.42-25.87,5.79-38.25,4.23-12,11-22.08,21.5-29.5a52.41,52.41,0,0,1,20.19-8.62,68.3,68.3,0,0,1,32.28,1.13A49,49,0,0,1,351,242.82c5.54,8.58,8.82,18,10.82,28A143.59,143.59,0,0,1,364.09,306a93.23,93.23,0,0,1-10.57,39.86c-7.77-6.79-14.91-14.14-22.77-21.2l-24.26,25.3Z" transform="translate(-0.6 -0.6)"/></svg>