<svg id="Ebene_1" data-name="Ebene 1" xmlns="http://www.w3.org/2000/svg" viewBox="0 0 437.08 231.76"><defs><style>.cls-1{fill:#fff;}.cls-2{fill:#575756;}</style></defs><title>think</title><rect class="cls-1" x="2.9" y="3.01" width="394.6" height="226.9" rx="12" ry="12"/><path class="cls-2" d="M387.51,231.76h-375A12.5,12.5,0,0,1,0,219.27V12.49A12.5,12.5,0,0,1,12.49,0h375A12.5,12.5,0,0,1,400,12.49V219.27A12.5,12.5,0,0,1,387.51,231.76ZM12.49,5A7.5,7.5,0,0,0,5,12.49V219.27a7.5,7.5,0,0,0,7.49,7.49h375a7.5,7.5,0,0,0,7.49-7.49V12.49A7.5,7.5,0,0,0,387.51,5Z"/><rect class="cls-1" x="90.91" y="169.35" width="35.25" height="30.23" rx="12" ry="12"/><path class="cls-2" d="M116.17,202.08H100.9a12.5,12.5,0,0,1-12.49-12.49V179.34a12.5,12.5,0,0,1,12.49-12.49h15.27a12.5,12.5,0,0,1,12.49,12.49v10.25A12.5,12.5,0,0,1,116.17,202.08ZM100.9,171.85a7.5,7.5,0,0,0-7.49,7.49v10.25a7.5,7.5,0,0,0,7.49,7.49h15.27a7.5,7.5,0,0,0,7.49-7.49V179.34a7.5,7.5,0,0,0-7.49-7.49Z"/><path class="cls-1" d="M160.07,102.09a51.54,51.54,0,1,0-79.22,43.46V163.1a10,10,0,0,0,10,10h35.39a10,10,0,0,0,10-10V145.55A51.48,51.48,0,0,0,160.07,102.09Z"/><path class="cls-2" d="M126.23,175.59H90.84A12.5,12.5,0,0,1,78.35,163.1V146.89a54,54,0,1,1,60.37,0V163.1A12.5,12.5,0,0,1,126.23,175.59ZM108.54,53.05A49,49,0,0,0,82.2,143.44l1.15.74V163.1a7.5,7.5,0,0,0,7.49,7.49h35.39a7.5,7.5,0,0,0,7.49-7.49V144.18l1.15-.74a49,49,0,0,0-26.34-90.39Z"/><polygon class="cls-1" points="98.49 94.76 105.74 108.76 95.89 131.56 119.74 107.72 111.45 95.8 125.44 74.55 98.49 94.76"/><path class="cls-2" d="M95.89,134.06a2.5,2.5,0,0,1-2.29-3.49L103,108.85,96.27,95.91A2.5,2.5,0,0,1,97,92.76l27-20.22a2.5,2.5,0,0,1,3.58,3.37L114.46,95.76l7.33,10.53a2.5,2.5,0,0,1-.28,3.19L97.66,133.33A2.49,2.49,0,0,1,95.89,134.06Zm5.78-38.57L108,107.61a2.5,2.5,0,0,1,.08,2.14l-4.67,10.81,13.13-13.13-7.1-10.21a2.5,2.5,0,0,1,0-2.8l6.11-9.28Z"/><path class="cls-2" d="M108.54,38.37a2.5,2.5,0,0,1-2.5-2.5V19.63a2.5,2.5,0,0,1,5,0V35.87A2.5,2.5,0,0,1,108.54,38.37Z"/><line class="cls-1" x1="58.43" y1="166.85" x2="66.55" y2="152.79"/><path class="cls-2" d="M58.43,169.35a2.5,2.5,0,0,1-2.16-3.75l8.12-14.06a2.5,2.5,0,0,1,4.33,2.5L60.59,168.1A2.5,2.5,0,0,1,58.43,169.35Z"/><path class="cls-2" d="M42.91,100.72H26.68a2.5,2.5,0,0,1,0-5H42.91a2.5,2.5,0,0,1,0,5Z"/><line class="cls-1" x1="34.2" y1="137.41" x2="48.26" y2="129.29"/><path class="cls-2" d="M34.2,139.91a2.5,2.5,0,0,1-1.25-4.66L47,127.13a2.5,2.5,0,1,1,2.5,4.33l-14.06,8.12A2.48,2.48,0,0,1,34.2,139.91Z"/><line class="cls-1" x1="68.31" y1="30.25" x2="76.43" y2="44.31"/><path class="cls-2" d="M76.43,46.81a2.5,2.5,0,0,1-2.17-1.25L66.15,31.5A2.5,2.5,0,0,1,70.48,29l8.12,14.06a2.5,2.5,0,0,1-2.16,3.75Z"/><line class="cls-1" x1="40.05" y1="56.64" x2="54.11" y2="64.76"/><path class="cls-2" d="M54.1,67.26a2.48,2.48,0,0,1-1.25-.33L38.8,58.8a2.5,2.5,0,0,1,2.5-4.33L55.36,62.6a2.5,2.5,0,0,1-1.25,4.66Z"/><line class="cls-1" x1="157.57" y1="166.52" x2="149.45" y2="152.46"/><path class="cls-2" d="M157.57,169a2.5,2.5,0,0,1-2.17-1.25l-8.12-14.06a2.5,2.5,0,0,1,4.33-2.5l8.12,14.06a2.5,2.5,0,0,1-2.16,3.75Z"/><line class="cls-1" x1="189.31" y1="97.89" x2="173.08" y2="97.89"/><path class="cls-2" d="M189.31,100.39H173.08a2.5,2.5,0,0,1,0-5h16.23a2.5,2.5,0,0,1,0,5Z"/><line class="cls-1" x1="181.8" y1="137.08" x2="167.74" y2="128.96"/><path class="cls-2" d="M181.79,139.58a2.48,2.48,0,0,1-1.25-.34l-14.06-8.12a2.5,2.5,0,1,1,2.5-4.33L183,134.92a2.5,2.5,0,0,1-1.25,4.66Z"/><line class="cls-1" x1="147.68" y1="29.92" x2="139.56" y2="43.98"/><path class="cls-2" d="M139.56,46.48a2.5,2.5,0,0,1-2.16-3.75l8.12-14.06a2.5,2.5,0,1,1,4.33,2.5l-8.12,14.06A2.5,2.5,0,0,1,139.56,46.48Z"/><line class="cls-1" x1="175.95" y1="56.31" x2="161.89" y2="64.43"/><path class="cls-2" d="M161.89,66.93a2.5,2.5,0,0,1-1.25-4.66l14.06-8.12a2.5,2.5,0,0,1,2.5,4.33l-14.06,8.12A2.49,2.49,0,0,1,161.89,66.93Z"/><path class="cls-2" d="M284.92,58.81H201.67a2.5,2.5,0,0,1,0-5h83.25a2.5,2.5,0,0,1,0,5Z"/><path class="cls-2" d="M286.8,66.93a2.5,2.5,0,0,1-1.25-4.66l10.31-6-10.31-6A2.5,2.5,0,0,1,288,46l14.06,8.12a2.5,2.5,0,0,1,0,4.33L288,66.59A2.49,2.49,0,0,1,286.8,66.93Z"/><path class="cls-2" d="M333.63,93H205.1a2.5,2.5,0,0,1,0-5h126V48.2a2.5,2.5,0,1,1,5,0V90.48A2.5,2.5,0,0,1,333.63,93Z"/><path class="cls-2" d="M341.75,46.81a2.5,2.5,0,0,1-2.17-1.25l-6-10.31-6,10.31a2.5,2.5,0,1,1-4.33-2.5L331.47,29a2.5,2.5,0,0,1,4.33,0l8.12,14.06a2.5,2.5,0,0,1-2.16,3.75Z"/><line class="cls-1" x1="395.57" y1="114.55" x2="205.08" y2="114.55"/><path class="cls-2" d="M205.08,117a2.5,2.5,0,0,1,0-5H395.57a2.5,2.5,0,0,1,0,5Z"/><path class="cls-2" d="M359.47,208.52h0l-88.34-.75a2.5,2.5,0,0,1-2.48-2.51l.3-65.35H205.1a2.5,2.5,0,0,1,0-5h66.33a2.5,2.5,0,0,1,2.5,2.51l-.3,65.37,83.34.71V169.91a2.5,2.5,0,0,1,5,0V206a2.5,2.5,0,0,1-2.5,2.5Z"/><path class="cls-2" d="M373.32,162.08a2.48,2.48,0,0,1-1.25-.34L358,153.63a2.5,2.5,0,0,1,0-4.33l14.06-8.12a2.5,2.5,0,0,1,2.5,4.33l-10.31,6,10.31,6a2.5,2.5,0,0,1-1.25,4.66Z"/><path class="cls-2" d="M345.61,162.08a2.5,2.5,0,0,1-1.25-4.66l10.31-6-10.31-6a2.5,2.5,0,0,1,2.5-4.33l14.06,8.12a2.5,2.5,0,0,1,0,4.33l-14.06,8.12A2.49,2.49,0,0,1,345.61,162.08Z"/></svg>